<svg width="1753" height="1514" viewBox="0 0 1753 1514" fill="none" xmlns="http://www.w3.org/2000/svg">
<path d="M1358.4 549.431C1344.38 570.936 1328.38 602.843 1310.39 645.151C1305.25 634.633 1300.92 626.159 1297.42 619.731C1293.92 613.303 1289.18 605.881 1283.23 597.466C1277.27 589.051 1271.31 582.448 1265.35 577.656C1259.4 572.864 1252.04 568.773 1243.28 565.384C1234.51 561.995 1224.99 560.3 1214.71 560.3H1136.21C1132.94 560.3 1130.26 559.248 1128.15 557.144C1126.05 555.041 1125 552.353 1125 549.08V481.76C1125 478.488 1126.05 475.799 1128.15 473.696C1130.26 471.592 1132.94 470.54 1136.21 470.54H1214.71C1273.12 470.54 1321.02 496.837 1358.4 549.431ZM1753 829.58C1753 832.853 1751.95 835.541 1749.85 837.644L1637.7 949.844C1635.6 951.948 1632.91 953 1629.64 953C1626.61 953 1623.98 951.89 1621.76 949.669C1619.54 947.448 1618.43 944.819 1618.43 941.78V874.46C1610.95 874.46 1601.02 874.518 1588.64 874.635C1576.26 874.752 1566.8 874.869 1560.25 874.986C1553.71 875.103 1545.19 874.986 1534.67 874.635C1524.16 874.285 1515.86 873.7 1509.79 872.882C1503.72 872.064 1496.24 870.837 1487.36 869.201C1478.48 867.564 1471.12 865.402 1465.28 862.714C1459.44 860.026 1452.67 856.695 1444.96 852.721C1437.25 848.748 1430.36 844.073 1424.28 838.696C1418.21 833.32 1411.78 827.067 1405.01 819.938C1398.23 812.808 1391.69 804.686 1385.38 795.569C1399.17 773.831 1415.05 741.924 1433.04 699.849C1438.18 710.368 1442.5 718.841 1446.01 725.269C1449.51 731.697 1454.24 739.119 1460.2 747.534C1466.16 755.949 1472.12 762.552 1478.07 767.344C1484.03 772.136 1491.39 776.227 1500.15 779.616C1508.91 783.005 1518.43 784.7 1528.71 784.7H1618.43V717.38C1618.43 714.108 1619.48 711.419 1621.58 709.316C1623.69 707.212 1626.37 706.16 1629.64 706.16C1632.45 706.16 1635.25 707.329 1638.05 709.666L1749.85 821.516C1751.95 823.619 1753 826.308 1753 829.58ZM1753 515.42C1753 518.693 1751.95 521.381 1749.85 523.484L1637.7 635.684C1635.6 637.788 1632.91 638.84 1629.64 638.84C1626.61 638.84 1623.98 637.73 1621.76 635.509C1619.54 633.288 1618.43 630.659 1618.43 627.62V560.3H1528.71C1517.5 560.3 1507.34 562.053 1498.23 565.559C1489.11 569.066 1481.05 574.325 1474.04 581.338C1467.04 588.35 1461.08 595.538 1456.17 602.901C1451.27 610.264 1446.01 619.322 1440.4 630.074C1432.93 644.567 1423.81 664.553 1413.07 690.031C1406.29 705.459 1400.51 718.432 1395.72 728.951C1390.93 739.469 1384.62 751.741 1376.8 765.766C1368.97 779.791 1361.49 791.479 1354.37 800.829C1347.24 810.179 1338.6 819.879 1328.43 829.931C1318.27 839.982 1307.76 847.988 1296.89 853.948C1286.03 859.909 1273.59 864.818 1259.57 868.675C1245.55 872.532 1230.6 874.46 1214.71 874.46H1136.21C1132.94 874.46 1130.26 873.408 1128.15 871.304C1126.05 869.201 1125 866.513 1125 863.24V795.92C1125 792.648 1126.05 789.959 1128.15 787.856C1130.26 785.752 1132.94 784.7 1136.21 784.7H1214.71C1225.93 784.7 1236.09 782.947 1245.2 779.441C1254.31 775.934 1262.38 770.675 1269.38 763.663C1276.39 756.65 1282.35 749.462 1287.26 742.099C1292.16 734.736 1297.42 725.678 1303.03 714.926C1310.5 700.433 1319.61 680.448 1330.36 654.969C1337.14 639.541 1342.92 626.568 1347.71 616.049C1352.5 605.531 1358.81 593.259 1366.63 579.234C1374.46 565.209 1381.94 553.521 1389.06 544.171C1396.19 534.821 1404.83 525.121 1414.99 515.069C1425.16 505.018 1435.67 497.012 1446.53 491.052C1457.4 485.091 1469.84 480.182 1483.86 476.325C1497.88 472.468 1512.83 470.54 1528.71 470.54H1618.43V403.22C1618.43 399.948 1619.48 397.259 1621.58 395.156C1623.69 393.052 1626.37 392 1629.64 392C1632.45 392 1635.25 393.169 1638.05 395.506L1749.85 507.356C1751.95 509.459 1753 512.148 1753 515.42Z" fill="white"/>
<path d="M680.5 832.7C861.664 832.7 1026.42 885.236 1147.63 959.195C1208.11 996.288 1259.83 1039.82 1297.18 1087.13C1333.93 1133.76 1361 1189.47 1361 1249.05C1361 1313.02 1329.92 1363.43 1285.16 1399.39C1242.82 1433.46 1186.94 1456.01 1127.59 1471.76C1008.27 1503.33 849.037 1514 680.5 1514C511.963 1514 352.726 1503.4 233.412 1471.76C174.057 1456.01 118.18 1433.46 75.8379 1399.39C31.0005 1363.36 0 1313.02 0 1249.05C0 1189.47 27.0688 1133.76 63.8158 1087.13C101.168 1039.82 152.81 996.288 213.375 959.195C334.579 885.236 499.411 832.7 680.5 832.7ZM680.5 0C780.767 0 876.927 39.8776 947.826 110.86C1018.72 181.843 1058.56 278.116 1058.56 378.5C1058.56 478.884 1018.72 575.157 947.826 646.14C876.927 717.122 780.767 757 680.5 757C580.233 757 484.074 717.122 413.174 646.14C342.275 575.157 302.444 478.884 302.444 378.5C302.444 278.116 342.275 181.843 413.174 110.86C484.074 39.8776 580.233 0 680.5 0Z" fill="white"/>
</svg>
